<svg width="16" height="23" viewBox="0 0 16 23" fill="none" xmlns="http://www.w3.org/2000/svg">
<g filter="url(#filter0_d_249_4365)">
<path d="M11.2307 0.781046L0.79817 9.77989C0.364315 10.1541 0.332987 10.8156 0.729532 11.2292L10.1559 21.06C10.6107 21.5344 11.3917 21.4485 11.7326 20.8866L14.0564 17.0562C14.2647 16.7128 14.2474 16.2782 14.0125 15.9525L10.5234 11.1148C10.2506 10.7366 10.2755 10.22 10.5833 9.8697L14.5212 5.38931C14.8068 5.06438 14.8511 4.59266 14.6309 4.22026L12.7446 1.02938C12.4276 0.492998 11.7025 0.374064 11.2307 0.781046Z" fill="white"/>
<path d="M11.2307 0.781046L0.79817 9.77989C0.364315 10.1541 0.332987 10.8156 0.729532 11.2292L10.1559 21.06C10.6107 21.5344 11.3917 21.4485 11.7326 20.8866L14.0564 17.0562C14.2647 16.7128 14.2474 16.2782 14.0125 15.9525L10.5234 11.1148C10.2506 10.7366 10.2755 10.22 10.5833 9.8697L14.5212 5.38931C14.8068 5.06438 14.8511 4.59266 14.6309 4.22026L12.7446 1.02938C12.4276 0.492998 11.7025 0.374064 11.2307 0.781046Z" stroke="black" stroke-width="0.8"/>
</g>
<defs>
<filter id="filter0_d_249_4365" x="0.0512695" y="0.138184" width="15.1189" height="22.2299" filterUnits="userSpaceOnUse" color-interpolation-filters="sRGB">
<feFlood flood-opacity="0" result="BackgroundImageFix"/>
<feColorMatrix in="SourceAlpha" type="matrix" values="0 0 0 0 0 0 0 0 0 0 0 0 0 0 0 0 0 0 127 0" result="hardAlpha"/>
<feOffset dy="0.6"/>
<feComposite in2="hardAlpha" operator="out"/>
<feColorMatrix type="matrix" values="0 0 0 0 0 0 0 0 0 0 0 0 0 0 0 0 0 0 1 0"/>
<feBlend mode="normal" in2="BackgroundImageFix" result="effect1_dropShadow_249_4365"/>
<feBlend mode="normal" in="SourceGraphic" in2="effect1_dropShadow_249_4365" result="shape"/>
</filter>
</defs>
</svg>
