<svg version="1.2" xmlns="http://www.w3.org/2000/svg" viewBox="0 0 1094 964" width="1094" height="964">
	<style>
		.s0 { fill: #ffffff } 
	</style>
	<g id="option_1">
		<path class="s0" d="m433.5 356.8q13.7 9.7 13.7 24.8 0 1.1-0.1 2.1-0.1 1.1-0.2 2.1-0.1 1.1-0.3 2.1-0.2 1.1-0.4 2.1-3.6 15.8-20 22.7-16.4 6.8-38.8 6.8-2.6 0-5.3-0.1-2.6 0-5.3-0.2-2.6-0.2-5.3-0.5-2.6-0.3-5.2-0.6-0.3 12.5 6.7 17.5 7 5 19.4 5 1.4 0 2.8-0.1 1.4-0.1 2.8-0.2 1.4-0.2 2.7-0.4 1.4-0.3 2.7-0.6 5.3-1.3 13.5-4 6.7-2.4 9.1-2.4 2.6 0 2.6 3.1 0.3 8.4-6.2 17.6-6.5 9.3-19.2 15.8-12.7 6.4-30.7 6.4-26.7 0-43.7-13.4-17-13.4-17-39.1 0-2.1 0.2-4.3 0.1-2.1 0.3-4.2 0.3-2.1 0.6-4.2 0.4-2.1 0.8-4.1 6-29.5 26.3-44.5 20.3-15 49.3-15 30.5 0 44.2 9.7zm-62.9 47.2q10.1 0 15.4-9.4 1.3-2.3 2.3-4.9 1-2.5 1.6-5.1 0.6-2.7 0.9-5.4 0.3-2.7 0.2-5.4-0.3-6.8-3.9-6.8-2.6 0-6.2 4.2-3.6 4.2-7.1 12.6-0.9 2.5-1.8 4.9-0.8 2.5-1.6 5-0.7 2.5-1.3 5-0.6 2.5-1.1 5.1 0.3 0 0.6 0.1 0.4 0 0.7 0.1 0.3 0 0.7 0 0.3 0 0.6 0z"/>
		<path class="s0" d="m567.9 356.8q13.7 9.7 13.7 24.8 0 1.1-0.1 2.1-0.1 1.1-0.2 2.1-0.1 1.1-0.3 2.1-0.2 1.1-0.4 2.1-3.6 15.8-20 22.7-16.4 6.8-38.8 6.8-2.6 0-5.3-0.1-2.6 0-5.3-0.2-2.6-0.2-5.3-0.5-2.6-0.3-5.2-0.6-0.3 12.4 6.7 17.5 7 5 19.5 5 1.3 0 2.7-0.1 1.4-0.1 2.8-0.2 1.4-0.2 2.7-0.4 1.4-0.3 2.8-0.6 5.2-1.3 13.4-4 6.7-2.4 9.1-2.4 2.6 0 2.7 3.1 0.2 8.4-6.3 17.6-6.5 9.3-19.2 15.7-12.7 6.5-30.7 6.5-26.6 0-43.7-13.4-17-13.4-17-39.1 0-2.1 0.2-4.3 0.1-2.1 0.4-4.2 0.2-2.1 0.5-4.2 0.4-2.1 0.8-4.1 6-29.6 26.3-44.6 20.3-15 49.3-15 30.5 0.1 44.2 9.8zm-62.9 47.2q10.1 0 15.4-9.4 1.3-2.3 2.3-4.9 0.9-2.5 1.6-5.1 0.6-2.7 0.9-5.4 0.3-2.7 0.2-5.4-0.3-6.8-3.9-6.8-2.6 0-6.2 4.2-3.6 4.2-7.1 12.6-1 2.5-1.8 4.9-0.9 2.5-1.6 5-0.7 2.5-1.4 5-0.6 2.5-1.1 5.1 0.3 0 0.7 0.1 0.3 0 0.7 0.1 0.3 0 0.6 0 0.4 0 0.7 0z"/>
		<path class="s0" d="m716.1 356q2 2 3.5 4.3 1.5 2.4 2.6 5 1 2.6 1.5 5.3 0.5 2.8 0.4 5.6 0 1-0.1 2.1 0 1-0.2 2.1-0.1 1-0.3 2.1-0.2 1-0.4 2.1-2.4 9.8-9.1 15.1-1.7 1.3-3.6 2.3-1.9 1-4 1.7-2 0.7-4.1 1-2.2 0.3-4.3 0.3-9.1 0-13.8-4.3-1.3-1.3-2.5-2.6-1.1-1.4-2.2-2.8-1-1.5-1.9-3-0.9-1.5-1.7-3.1-0.3-0.8-0.7-1.6-0.4-0.8-0.9-1.6-0.4-0.7-0.9-1.4-0.5-0.8-1.1-1.4-0.3-0.5-0.8-0.8-0.4-0.4-0.9-0.6-0.5-0.3-1-0.4-0.6-0.1-1.1-0.2-0.6 0-1.2 0.2-0.6 0.1-1.1 0.3-0.6 0.3-1 0.7-0.5 0.3-0.9 0.8-1.8 1.9-3.3 6.7l-18.4 60q-0.2 0.4-0.3 0.9-0.1 0.4-0.1 0.9-0.1 0.4-0.1 0.9 0 0.4 0 0.9 0 0.7 0.1 1.4 0.1 0.7 0.3 1.3 0.2 0.7 0.6 1.3 0.3 0.6 0.8 1.1 0.5 0.6 1.1 1.2 0.6 0.5 1.2 1 0.6 0.5 1.3 1 0.6 0.4 1.3 0.8 0.5 0.4 1 0.7 0.5 0.4 1 0.8 0.5 0.4 1 0.8 0.4 0.4 0.8 0.9 0.3 0.3 0.5 0.7 0.1 0.3 0.2 0.7 0.1 0.4 0.1 0.9 0 0.4 0 0.8-0.1 0.7-0.4 1.4-0.3 0.7-0.8 1.3-0.4 0.6-1 1.1-0.6 0.4-1.3 0.7c-2 1-5.4 1.5-10.2 1.5h-61.5q-6.2 0-9-2-0.6-0.5-1.1-1.1-0.5-0.6-0.8-1.3-0.2-0.7-0.3-1.5 0-0.8 0.2-1.5 1-2.9 5-5 0.9-0.5 1.7-1 0.8-0.5 1.5-1 0.8-0.6 1.5-1.3 0.7-0.6 1.3-1.3 2.4-2.6 4.1-8.4l21.3-69.5q0.2-0.4 0.3-0.8 0.1-0.4 0.1-0.9 0.1-0.4 0.1-0.8 0-0.4 0-0.9 0.1-0.5 0-1 0-0.6-0.2-1.1-0.1-0.5-0.3-1-0.3-0.5-0.6-0.9-0.3-0.5-0.8-1-0.4-0.5-0.8-0.9-0.4-0.5-0.9-0.9-0.5-0.4-0.9-0.8-0.5-0.4-1-0.8-0.4-0.4-0.8-0.8-0.5-0.4-0.8-0.9-0.4-0.4-0.8-0.9-0.2-0.4-0.4-0.9-0.1-0.5-0.2-1 0-0.5 0.1-1 0.1-0.5 0.3-0.9 1.4-5.6 15.1-9.8 3.5-1 7-1.8 3.5-0.8 7.1-1.3 3.6-0.6 7.2-0.8 3.6-0.3 7.2-0.3 9.9 0 16.4 4.5 1.6 1.1 2.9 2.5 1.4 1.4 2.5 3 1.1 1.6 1.8 3.4 0.8 1.8 1.2 3.7 11.5-17 30.2-17 13.4 0 21.5 8.1z"/>
		<path class="s0" d="m662.5 726.4q15.5 13.2 15.5 34.6 0 2-0.2 4.1-0.1 2-0.4 4-0.2 2-0.6 4-0.3 2-0.8 4-1.1 4.7-2.7 9.3-1.6 4.6-3.7 8.9-2.2 4.4-4.8 8.4-2.7 4.1-5.8 7.8-3.1 3.7-6.6 7-3.5 3.3-7.4 6.2-3.9 2.8-8 5.3-4.2 2.4-8.6 4.3-4.6 2-9.4 3.6-4.9 1.5-9.8 2.5-4.9 1-10 1.5-5 0.5-10 0.4-33.4 0-49.4-13.3-15.9-13.3-16-35.4 0.1-2.1 0.2-4.2 0.1-2.1 0.4-4.1 0.2-2.1 0.6-4.2 0.3-2 0.8-4.1 1.1-4.6 2.7-9 1.7-4.5 3.9-8.7 2.2-4.2 4.9-8.1 2.7-3.9 5.9-7.4 3.2-3.7 6.8-6.9 3.7-3.3 7.6-6.1 4-2.9 8.2-5.3 4.3-2.4 8.8-4.3 4.7-2 9.6-3.5 4.8-1.5 9.8-2.5 5.1-1 10.1-1.5 5.1-0.5 10.2-0.5 32.7 0 48.2 13.2zm-59.5 17.2q-5.6 9-13.3 34-7.7 25-7.7 35 0 5.3 1.7 7.1 0.4 0.4 0.9 0.8 0.6 0.3 1.2 0.6 0.6 0.2 1.2 0.3 0.6 0.1 1.2 0.1 5 0.5 10.5-8.7 5.4-9.1 13.5-35.5 7.5-23.3 7.5-33.8 0-5-1.6-7-0.4-0.5-0.9-0.9-0.5-0.4-1.1-0.6-0.6-0.3-1.2-0.4-0.6-0.1-1.2-0.1-5.1 0.1-10.7 9.1z"/>
		<path class="s0" d="m827.5 807.1q-0.2 0.3-0.3 0.7-0.1 0.3-0.1 0.7-0.1 0.4-0.1 0.8 0 0.3 0 0.7 0 0.4 0 0.7 0.1 0.4 0.2 0.7 0.1 0.3 0.2 0.7 0.2 0.3 0.4 0.5 0.3 0.3 0.5 0.5 0.3 0.2 0.6 0.3 0.3 0.1 0.6 0.2 0.3 0.1 0.6 0 0.7 0 1.4-0.2 0.7-0.2 1.4-0.5 0.6-0.3 1.1-0.8 0.6-0.5 1-1.1 2-2.5 2.8-2.5 1.2 0 1.9 1.5 0.2 0.5 0.3 0.9 0.2 0.5 0.2 1 0.1 0.4 0.2 0.9 0 0.5 0 1 0 1.8-0.3 3.6-0.2 1.8-0.8 3.5-0.6 1.8-1.5 3.4-0.8 1.6-2 3-4.8 6.6-14 10.8-9.1 4.2-22.2 4.2-15.8 0-25.2-7.3-2.2-1.7-4-3.9-1.8-2.2-3.1-4.7-1.2-2.6-1.9-5.4-0.6-2.7-0.6-5.6 0-8.8 4.4-19.9l13.2-34.5q0.2-0.6 0.4-1.2 0.2-0.6 0.4-1.2 0.1-0.7 0.2-1.3 0.1-0.7 0.1-1.3 0.1-0.7 0-1.4-0.2-0.6-0.4-1.3-0.3-0.6-0.7-1.2-0.4-0.6-0.9-1-0.5-0.5-1-0.8-0.6-0.4-1.3-0.6-0.6-0.2-1.2-0.3-0.7-0.1-1.4-0.1-5.3 0-10.1 4.9-1.2 1.3-2.3 2.7-1 1.4-1.9 2.9-0.9 1.6-1.6 3.2-0.7 1.6-1.2 3.3l-14.8 49q-0.3 0.6-0.4 1.2-0.2 0.7-0.3 1.3-0.2 0.6-0.2 1.2-0.1 0.7-0.1 1.3 0 0.6 0 1.2 0.1 0.7 0.3 1.3 0.1 0.5 0.3 1.1 0.3 0.6 0.6 1.1 0.4 0.5 0.8 1 0.3 0.5 0.8 1 0.4 0.4 0.8 0.9 0.5 0.4 1 0.8 0.3 0.3 0.6 0.6 0.4 0.3 0.7 0.6 0.3 0.4 0.5 0.7 0.3 0.4 0.6 0.8 0.1 0.3 0.3 0.6 0.1 0.4 0.1 0.8 0 0.3 0 0.7-0.1 0.4-0.2 0.7-0.3 0.8-0.7 1.6-0.4 0.7-1 1.3-0.6 0.6-1.3 1-0.8 0.4-1.5 0.7c-2.4 1-6.2 1.4-11.3 1.4h-54.7q-6.3 0-9-2-0.7-0.4-1.2-1-0.5-0.6-0.7-1.3-0.3-0.8-0.4-1.5 0-0.8 0.2-1.6 1-2.8 5.1-5 0.8-0.4 1.6-0.9 0.8-0.5 1.5-1.1 0.8-0.6 1.5-1.2 0.7-0.6 1.4-1.3 2.3-2.7 4-8.4l21.4-69.4q0.1-0.4 0.2-0.8 0.1-0.4 0.2-0.8 0-0.5 0.1-0.9 0-0.4 0-0.8 0-0.6 0-1.1-0.1-0.5-0.2-1.1-0.2-0.5-0.4-1-0.2-0.5-0.5-0.9-0.4-0.5-0.8-1-0.4-0.4-0.9-0.9-0.4-0.4-0.9-0.9-0.4-0.4-0.9-0.8-0.5-0.4-0.9-0.8-0.5-0.4-0.9-0.8-0.4-0.4-0.8-0.8-0.4-0.5-0.8-1-0.2-0.4-0.3-0.9-0.2-0.5-0.2-1 0-0.5 0-1 0.1-0.5 0.3-0.9 1.4-5.5 15.1-9.7 3.5-1.1 7-1.9 3.6-0.8 7.1-1.3 3.6-0.5 7.2-0.8 3.7-0.3 7.3-0.2 12 0 19 6.6 7 6.6 6.2 18.2 9.8-14.2 20.9-19.6 2.8-1.3 5.7-2.4 2.9-1 6-1.7 3-0.6 6.1-1 3.1-0.3 6.2-0.3 14.6 0 23.6 8.9 9 8.9 9 23 0 1.9-0.1 3.7-0.2 1.9-0.5 3.7-0.3 1.9-0.7 3.7-0.5 1.8-1.1 3.5z"/>
		<path class="s0" d="m1011.2 677.4q1.7 0.7 3.3 1.6 1.7 1 3.2 2.1 1.5 1.1 2.9 2.4 1.4 1.3 2.6 2.7 1.1 1.3 1.9 2.7 0.9 1.4 1.5 3 0.6 1.5 0.9 3.2 0.3 1.6 0.4 3.2 0 14.2-19.2 14.2-1.1 0-2.2 0-1.1 0-2.1-0.1-1.1-0.1-2.2-0.3-1-0.2-2.1-0.4-0.9-0.3-1.8-0.6-0.9-0.3-1.8-0.7-0.8-0.3-1.7-0.7-0.9-0.4-1.7-0.8-0.2 0.6-0.4 1.2-0.1 0.6-0.2 1.2-0.1 0.6-0.2 1.2 0 0.6 0 1.2 0.1 1.2 0.2 2.3 0.1 1.2 0.2 2.3 0.2 1.2 0.4 2.3 0.3 1.1 0.6 2.2 0.3 1.3 0.6 2.5 0.4 1.3 0.8 2.5 0.4 1.2 0.8 2.5 0.5 1.2 1 2.4 1.3 1.9 2.3 4.1 0.9 2.1 1.6 4.4 0.6 2.2 0.9 4.6 0.3 2.3 0.2 4.6 0 1.4-0.1 2.8-0.1 1.4-0.3 2.8-0.1 1.3-0.3 2.7-0.2 1.4-0.5 2.7-0.8 3.2-2 6.3-1.2 3.1-2.8 6-1.6 2.9-3.5 5.5-2 2.7-4.3 5-9.7 10.3-25 16.2-4 1.5-8.1 2.7-4.2 1.1-8.4 1.8-4.2 0.8-8.4 1.1-4.3 0.4-8.6 0.3-3.3 0-6.5-0.1-3.3-0.1-6.6-0.3-3.3-0.3-6.5-0.6-3.3-0.4-6.5-0.9-0.9 0.7-1.6 1.6-0.6 0.8-1.1 1.8-0.5 1-0.7 2.1-0.3 1.1-0.2 2.2 0 0.7 0.2 1.5 0.2 0.7 0.5 1.4 0.4 0.7 0.9 1.3 0.6 0.5 1.2 0.9 2.9 2 9.6 2h36q18.5 0 28.8 6.4 10.4 6.3 10.4 18.1 0 1.1-0.1 2.3-0.1 1.1-0.3 2.2-0.2 1.1-0.5 2.2-0.2 1.1-0.6 2.2-2.8 9.4-13 17.5-10.2 8-28.7 13.1-18.5 5-44.9 5-23.5 0-39.8-4.1-16.3-4.1-24.3-11.1-8-7.1-8-15.7 0-0.8 0.1-1.5 0.1-0.7 0.2-1.4 0.1-0.7 0.3-1.5 0.2-0.7 0.4-1.4 2.1-7 9.7-11.4 7.5-4.4 24.8-5.9-1.4-1.2-2.5-2.7-1.1-1.5-1.8-3.3-0.8-1.7-1.1-3.5-0.4-1.8-0.4-3.7 0-0.7 0.1-1.4 0-0.7 0.1-1.4 0.1-0.7 0.2-1.4 0.1-0.6 0.3-1.3 3.8-12.5 22.6-18.5-18-9.8-18-28.8 0-1.4 0.1-2.8 0.1-1.4 0.2-2.7 0.2-1.4 0.5-2.8 0.3-1.4 0.6-2.7 0.8-3.2 2-6.3 1.2-3 2.8-5.9 1.6-2.9 3.6-5.5 2-2.6 4.3-5 9.9-10.2 25.2-16.2 4-1.5 8.2-2.7 4.1-1.1 8.3-1.9 4.3-0.7 8.5-1.1 4.3-0.3 8.6-0.3 28.6 0 44.9 7.5-0.9-1.4-1.7-2.9-0.8-1.4-1.5-2.9-0.7-1.5-1.3-3-0.6-1.5-1.1-3.1-0.5-1.4-0.9-2.9-0.3-1.4-0.6-2.9-0.2-1.4-0.4-2.9-0.1-1.5-0.1-3-0.1-2.1 0.3-4.2 0.3-2.1 1.1-4.1 0.8-2 1.9-3.9 1.1-1.8 2.5-3.4 5.9-6.4 17.9-6.4 1.9 0 3.9 0.2 1.9 0.2 3.8 0.6 1.9 0.4 3.7 1 1.8 0.6 3.6 1.4zm-114.9 166.1q-1.5 0.1-3 0-1.6 0-3.1-0.1-1.5-0.1-3.1-0.2-1.5-0.2-3-0.4-2.9 3.6-2.9 9.6 0.3 6 4.9 8.7 4.7 2.6 14.6 2.6 12 0 19.5-3.6 7.6-3.6 7.6-10.3 0-0.7-0.1-1.3-0.2-0.7-0.4-1.3-0.3-0.5-0.7-1.1-0.5-0.5-1-0.9-0.7-0.4-1.4-0.8-0.8-0.3-1.6-0.5-0.8-0.2-1.6-0.3-0.8-0.1-1.6-0.1zm51.6-103q0-8.1-7-8.1-6 0-10.5 5.9-4.4 5.8-9 21-3.8 12.4-3.8 19 0 7.9 6.7 7.9 6 0 10.6-6 4.5-6 9.1-20.9 3.9-12.2 3.9-18.7z"/>
		<path class="s0" d="m305 424.5q0-2.3 0.2-4.6 0.1-2.3 0.4-4.7 0.3-2.3 0.6-4.6 0.4-2.3 0.9-4.5 6.6-32.5 28.9-49 22.3-16.6 54.3-16.5 3.1-0.1 6.3 0 3.2 0.2 6.3 0.4 3.2 0.3 6.3 0.6 3.2 0.4 6.3 1 2.1-4.2 3.9-8.6c17.2-41.5 17.2-88.2 0.1-129.8-17.1-41.5-50-74.6-91.5-92-41.5-17.3-88.1-17.6-129.8-0.6-41.6 16.9-74.9 49.7-92.4 91.1q-1.3 3-2.4 6.1-1.2 3.2-2.3 6.3-1 3.2-1.9 6.4-0.9 3.2-1.7 6.4h-0.1c-18.2 62.1-8.9 93.6 4 111 1 1.4 1 1.3 20.7 25.1q2.2 3.3 4.5 6.4 2.4 3.2 4.9 6.2 2.5 3.1 5.1 6 2.7 2.9 5.4 5.7c11.7 14.2 17.7 22.4 19.7 30.6 5 20.3-3.5 39.3-9.2 52.2-4.6 10.3-11.1 20.3-23.9 40.4-10.2 15.8-14.5 21.2-13.7 29.3 1.2 12.8 14.1 21.6 21.4 25.8q0.1 0 0.1 0.1 0.1 0 0.2 0 0.1 0.1 0.1 0.1 0.1 0 0.2 0.1 0.1 0 0.1 0 0.1 0.1 0.2 0.1 0.1 0 0.1 0 0.1 0.1 0.2 0.1c8.1 2.3 23.4 5.3 33.4-2.8 6.3-5.2 7.2-12 11.3-30.3 5.3-23.3 7.9-34.9 12-45.5 5.1-13 12.7-32.5 30.7-43.2 6.7-4 15.8-5.4 31.5-7q5.3 0.2 10.6 0.1 5.3-0.2 10.5-0.6 5.3-0.5 10.5-1.3 5.3-0.8 10.4-1.9l7.1-0.6q-0.1-1.2-0.2-2.4-0.1-1.2-0.2-2.3 0-1.2-0.1-2.4 0-1.2 0-2.4z"/>
		<path class="s0" d="m543.1 515.7c-16.7-7-34.6-10.7-52.7-10.7-18.1-0.1-36 3.4-52.7 10.3-16.8 6.8-32 16.9-44.9 29.6-12.8 12.8-23 27.9-30 44.6q-1 2.5-2 5-0.9 2.6-1.8 5.1-0.8 2.6-1.6 5.2-0.7 2.6-1.4 5.2h-0.1c-14.7 50.3-7.2 75.9 3.2 90 0.9 1.1 0.9 1 16.8 20.3q1.8 2.7 3.7 5.2 1.9 2.6 4 5.1 2 2.4 4.1 4.8 2.2 2.4 4.4 4.6c9.4 11.5 14.4 18.2 16 24.8 4.1 16.5-2.8 31.9-7.5 42.3-3.8 8.4-9 16.5-19.4 32.8-8.2 12.7-11.7 17.1-11.1 23.6 1 10.4 11.5 17.6 17.4 20.9l0.5 0.3 0.5 0.1c6.5 1.9 19 4.4 27.1-2.2 5.1-4.2 5.8-9.8 9.1-24.6 4.3-18.8 6.4-28.3 9.8-36.8 4.1-10.6 10.2-26.4 24.8-35 5.5-3.2 12.9-4.5 25.6-5.7q4.2 0.1 8.4 0 4.1-0.1 8.3-0.4 4.2-0.4 8.3-1 4.2-0.6 8.3-1.5c0-0.2 0-0.4 0.1-0.6q1.2-5.1 3-9.9 1.9-4.9 4.3-9.5 2.4-4.7 5.4-9 2.9-4.3 6.4-8.2 3.6-4 7.6-7.6 4-3.6 8.3-6.7 4.4-3.1 9.1-5.8 4.7-2.6 9.6-4.7 4.7-2 9.6-3.6 4.9-1.6 9.9-2.7 5-1.1 10.1-1.7 5.1-0.6 10.2-0.8 2.8-5.2 5.2-10.8c7-16.7 10.6-34.6 10.7-52.7 0-18.1-3.5-36-10.3-52.8-6.9-16.7-17-31.9-29.7-44.8-12.8-12.8-27.9-23-44.6-30zm18.9 105.3q-0.7 2.1-1.6 4.1-1 1.9-2.3 3.7-1.2 1.8-2.8 3.4-1.5 1.6-3.3 2.9-7 5.1-21.5 9.2-14.6 4.2-44.6 10-18.1 3.4-27.2 6-9 2.7-12.6 5.7-0.8 0.7-1.5 1.6-0.7 0.8-1.2 1.8-0.5 1-0.8 2.1-0.4 1.1-0.4 2.2h61.4q12.8 0 19.4-3.4 1.7-0.9 3.3-2 1.7-1 3.2-2.1 1.6-1.2 3-2.5 1.5-1.2 2.8-2.6 0.5-0.5 1-1.1 0.5-0.5 1-1 0.6-0.5 1.1-1 0.5-0.4 1.1-0.9 0.4-0.3 0.8-0.5 0.5-0.2 1-0.4 0.4-0.1 0.9-0.2 0.5-0.1 1-0.1 3.9 0 7 5.3 3.2 5.2 3.2 13.3 0 1.5-0.1 3.1-0.2 1.5-0.4 3-0.3 1.5-0.6 3-0.3 1.6-0.8 3-4.2 13.7-15.3 19.4-11.1 5.8-33.5 5.8h-75.2q-1.7 0-3.3-0.4-1.5-0.3-3-1.1-1.4-0.7-2.6-1.8-1.2-1.1-2.1-2.5-4.2-5.7-4.2-15.5 0-2 0.2-4 0.2-2 0.5-4 0.3-2 0.8-3.9 0.5-2 1.1-3.9 1-3.5 2.6-6.8 1.6-3.4 3.7-6.4 2.1-3 4.6-5.6 2.6-2.7 5.5-4.9 11.9-9.1 33.7-15.2 14.5-4.3 22.4-8.5 7.9-4.1 11.3-8.3 1.4-1.8 2.6-3.9 1.2-2 2-4.2 0.8-2.3 1.3-4.6 0.4-2.3 0.5-4.7 0-1.3-0.2-2.6-0.2-1.3-0.7-2.5-0.4-1.3-1.1-2.4-0.7-1.1-1.7-2.1-3.6-3.6-9.8-3.6-0.7 0.1-1.5 0.1-0.7 0.1-1.5 0.2-0.7 0.1-1.5 0.3-0.7 0.1-1.5 0.3 0.1 0.5 0.1 0.9 0.1 0.5 0.1 1 0 0.5 0 1 0.1 0.4 0.1 0.9 0 14.5-8.8 21.8-8.7 7.2-22 7.2-9.8 0-15.6-5.1-5.7-5.1-5.7-13.9 0-0.9 0-1.9 0.1-1 0.2-1.9 0.2-1 0.4-2 0.2-0.9 0.5-1.8 3.8-12.6 19.4-19.1 15.5-6.5 39.8-6.5 21.3 0 37 6.1 15.7 6 23.9 15.8 8.2 9.8 8.2 20.9 0 1.1-0.1 2.1 0 1.1-0.2 2.1-0.1 1-0.4 2.1-0.2 1-0.5 2z"/>
		<path class="s0" d="m126 505h-28c-1.6 0-3.1 0.3-4.6 0.9-1.4 0.6-2.8 1.5-3.9 2.6-1.1 1.1-2 2.5-2.6 3.9-0.6 1.5-0.9 3-0.9 4.6v4c0 1.6 0.3 3.1 0.9 4.6 0.6 1.4 1.5 2.8 2.6 3.9 1.1 1.1 2.5 2 3.9 2.6 1.5 0.6 3 0.9 4.6 0.9h14c0.3-7.4 4.8-13.7 14-28z"/>
		<path class="s0" d="m435.3 505h-241.4c-1.5 6.4-3.2 14-5.3 23l-1.1 5h204.8q4.7-4.4 9.8-8.4 5-4 10.4-7.6 5.4-3.5 11.1-6.5 5.8-3 11.7-5.5z"/>
		<path class="s0" d="m872 505h-327.4 0.1q5.9 2.5 11.6 5.5 5.7 3 11.1 6.5 5.4 3.6 10.5 7.6 5 4 9.7 8.4h284.4c1.6 0 3.1-0.3 4.6-0.9 1.4-0.6 2.8-1.5 3.9-2.6 1.1-1.1 2-2.5 2.6-3.9 0.6-1.5 0.9-3 0.9-4.6v-4c0-1.6-0.3-3.1-0.9-4.6-0.6-1.4-1.5-2.8-2.6-3.9-1.1-1.1-2.5-2-3.9-2.6-1.5-0.6-3-0.9-4.6-0.9z"/>
	</g>
</svg>
