<?xml version="1.0" standalone="no"?>
<!DOCTYPE svg PUBLIC "-//W3C//DTD SVG 20010904//EN"
 "http://www.w3.org/TR/2001/REC-SVG-20010904/DTD/svg10.dtd">
<svg version="1.0" xmlns="http://www.w3.org/2000/svg"
 width="64.000000pt" height="64.000000pt" viewBox="0 0 64.000000 64.000000"
 preserveAspectRatio="xMidYMid meet">

<g transform="translate(0.000000,64.000000) scale(0.100000,-0.100000)"
fill="#000000" stroke="none">
<path d="M276 626 c-76 -28 -136 -93 -150 -161 -6 -28 3 -39 133 -169 l140
-140 41 13 c88 26 160 128 160 226 -1 89 -54 176 -134 217 -51 26 -139 33
-190 14z"/>
<path d="M132 344 c5 -27 6 -62 3 -78 -4 -24 1 -36 27 -63 27 -28 37 -32 63
-27 16 3 50 1 75 -5 24 -5 46 -9 47 -7 1 1 -49 53 -111 115 l-114 114 10 -49z"/>
<path d="M50 165 l-54 -55 20 -27 c40 -53 49 -53 109 7 l55 56 -38 37 -38 37
-54 -55z"/>
<path d="M502 137 c-30 -32 -29 -81 3 -112 60 -61 158 6 125 85 -23 55 -89 68
-128 27z"/>
</g>
</svg>
