<svg xmlns="http://www.w3.org/2000/svg" viewBox="0 0 1094 964"><g id="option_1" data-name="option 1"><path d="M433.49,356.75q13.68,9.72,13.68,24.84a35.1,35.1,0,0,1-1,8.4q-3.6,15.84-20,22.68t-38.76,6.84a146,146,0,0,1-21.12-1.44Q366,430.55,373,435.59t19.44,5a45.36,45.36,0,0,0,11-1.32c3.51-.88,8-2.2,13.44-4,4.47-1.6,7.52-2.4,9.12-2.4q2.64,0,2.64,3.12.22,8.4-6.24,17.64t-19.2,15.72q-12.74,6.48-30.72,6.48-26.64,0-43.68-13.44t-17-39.12a86.34,86.34,0,0,1,1.92-16.8Q319.72,377,340,362t49.32-15Q419.79,347,433.49,356.75Zm-62.88,47.16q10.08,0,15.36-9.36a40.19,40.19,0,0,0,5-20.88q-.24-6.72-3.84-6.72c-1.77,0-3.84,1.4-6.24,4.2s-4.77,7-7.08,12.6A111.33,111.33,0,0,0,368,403.67,11.33,11.33,0,0,0,370.61,403.91Z"/><path d="M567.89,356.75q13.68,9.72,13.68,24.84a35.1,35.1,0,0,1-1,8.4q-3.6,15.84-20,22.68t-38.76,6.84a146,146,0,0,1-21.12-1.44q-.24,12.48,6.72,17.52t19.44,5a45.36,45.36,0,0,0,11-1.32c3.51-.88,8-2.2,13.44-4,4.47-1.6,7.52-2.4,9.12-2.4q2.64,0,2.64,3.12.23,8.4-6.24,17.64t-19.2,15.72q-12.74,6.48-30.72,6.48-26.64,0-43.68-13.44t-17-39.12a86.34,86.34,0,0,1,1.92-16.8q6-29.52,26.28-44.52t49.32-15Q554.19,347,567.89,356.75ZM505,403.91q10.08,0,15.36-9.36a40.19,40.19,0,0,0,5-20.88q-.24-6.72-3.84-6.72c-1.77,0-3.84,1.4-6.24,4.2s-4.77,7-7.08,12.6a111.33,111.33,0,0,0-5.88,19.92A11.33,11.33,0,0,0,505,403.91Z"/><path d="M716.09,356a27.6,27.6,0,0,1,8,20.16,35.1,35.1,0,0,1-1,8.4q-2.42,9.84-9.12,15.12A25.26,25.26,0,0,1,698,405q-9.13,0-13.8-4.32a39.52,39.52,0,0,1-8.28-11.52,27.38,27.38,0,0,0-3.6-6,5,5,0,0,0-3.84-1.92,5.59,5.59,0,0,0-4.2,1.92q-1.8,1.92-3.24,6.72l-18.48,60a10,10,0,0,0-.48,3.6,7.51,7.51,0,0,0,1.8,5.16,21.64,21.64,0,0,0,4.92,4,18.41,18.41,0,0,1,3.84,3.12,4.08,4.08,0,0,1,.72,3.12,5.84,5.84,0,0,1-3.48,4.56c-2,1-5.4,1.44-10.2,1.44H578.21q-6.24,0-9-2a4.94,4.94,0,0,1-2-5.4q1-2.88,5-5a22,22,0,0,0,6-4.56q2.38-2.64,4.08-8.4L603.65,380a9.58,9.58,0,0,0,.48-3.36,6.69,6.69,0,0,0-1.08-4.08,28.11,28.11,0,0,0-3.48-3.6,15.88,15.88,0,0,1-3.36-3.36,4.4,4.4,0,0,1-.24-3.84q1.44-5.52,15.12-9.72a96.71,96.71,0,0,1,28.56-4.2q9.84,0,16.32,4.44a20.34,20.34,0,0,1,8.4,12.6q11.52-17,30.24-17Q708,347.88,716.09,356Z"/><path d="M662.47,726.43Q677.95,739.63,678,761A76.76,76.76,0,0,1,676,777.07a80.81,80.81,0,0,1-17,34.44,84.22,84.22,0,0,1-30.6,22.8,95.72,95.72,0,0,1-39.24,8q-33.36,0-49.32-13.32t-16-35.4a80.35,80.35,0,0,1,1.92-16.56,76.87,76.87,0,0,1,17.4-33.24,87.81,87.81,0,0,1,31.44-22.56,99,99,0,0,1,39.72-8Q647,713.23,662.47,726.43ZM603,743.59q-5.64,9-13.32,34t-7.68,35q0,5.28,1.68,7.08a5.92,5.92,0,0,0,4.56,1.8q5,.48,10.44-8.64t13.56-35.52q7.42-23.28,7.44-33.84,0-5-1.56-7a5.39,5.39,0,0,0-4.44-1.92Q608.59,734.59,603,743.59Z"/><path d="M827.46,807.07A6.71,6.71,0,0,0,827,810a3.82,3.82,0,0,0,.84,2.64,2.86,2.86,0,0,0,2.28,1A6.15,6.15,0,0,0,835,811q2-2.52,2.76-2.52,1.19,0,1.92,1.56a8.82,8.82,0,0,1,.72,3.72,21.61,21.61,0,0,1-4.56,13.56q-4.82,6.6-14,10.8t-22.21,4.2q-15.82,0-25.19-7.32a24.19,24.19,0,0,1-9.6-19.56q0-8.88,4.32-19.92L782.35,761a15.1,15.1,0,0,0,1.19-5,6.25,6.25,0,0,0-2-4.92,7.2,7.2,0,0,0-4.92-1.8q-5.3,0-10.08,4.92a29,29,0,0,0-7,12.12l-14.88,49a14.72,14.72,0,0,0-.95,5,8.21,8.21,0,0,0,1.2,4.68,19.51,19.51,0,0,0,3.36,3.72,11.43,11.43,0,0,1,2.39,2.64,3.52,3.52,0,0,1,.25,2.88,7.19,7.19,0,0,1-4.56,4.56c-2.4,1-6.17,1.44-11.28,1.44H680.35q-6.24,0-9-2a5,5,0,0,1-2.05-5.4q1-2.88,5.05-5a22,22,0,0,0,6-4.56q2.39-2.64,4.08-8.4l21.36-69.36a9.58,9.58,0,0,0,.48-3.36,6.69,6.69,0,0,0-1.08-4.08,28.82,28.82,0,0,0-3.48-3.6,15.88,15.88,0,0,1-3.36-3.36,4.36,4.36,0,0,1-.24-3.84q1.44-5.52,15.11-9.72a96.83,96.83,0,0,1,28.57-4.2q12,0,19,6.6T767,738.19q9.82-14.16,20.88-19.56a53.82,53.82,0,0,1,24-5.4q14.63,0,23.64,8.88t9,23a46.3,46.3,0,0,1-2.4,14.64Z"/><path d="M1011.18,677.35a32.26,32.26,0,0,1,12,8.88,18.64,18.64,0,0,1,4.68,12.12q0,14.16-19.2,14.16a33.3,33.3,0,0,1-8.52-.84,46.7,46.7,0,0,1-7.08-2.76,12.61,12.61,0,0,0-.72,4.8,38.44,38.44,0,0,0,1.32,9.12,67.55,67.55,0,0,0,3.24,9.84,30.91,30.91,0,0,1,5,17.76,62.17,62.17,0,0,1-1.2,11,49.1,49.1,0,0,1-12.6,22.8q-9.72,10.32-25,16.2a92.27,92.27,0,0,1-33.48,5.88,168.93,168.93,0,0,1-26.16-1.92,9.78,9.78,0,0,0-3.6,7.68,6.11,6.11,0,0,0,2.88,5.16q2.88,2,9.6,2h36q18.48,0,28.8,6.36t10.32,18.12a29.41,29.41,0,0,1-1.44,8.88Q983.22,862,973,870.07t-28.68,13.08q-18.48,5-44.88,5-23.52,0-39.84-4.08T835.26,873q-8-7.08-8-15.72a26.26,26.26,0,0,1,1-5.76q2.16-7,9.72-11.4t24.84-5.88A17.65,17.65,0,0,1,857,821a22.75,22.75,0,0,1,.72-5.52Q861.54,803,880.26,797q-18-9.84-18-28.8a45.51,45.51,0,0,1,1.44-11,47.91,47.91,0,0,1,12.72-22.68q9.84-10.2,25.2-16.2a91.57,91.57,0,0,1,33.6-6q28.56,0,44.88,7.44a49.09,49.09,0,0,1-5.64-11.88,38.4,38.4,0,0,1-2-11.64,22.4,22.4,0,0,1,5.88-15.6q5.88-6.48,17.88-6.48A36.71,36.71,0,0,1,1011.18,677.35ZM896.34,843.55a95.13,95.13,0,0,1-12.24-.72q-2.88,3.6-2.88,9.6.24,6,4.92,8.64t14.52,2.64q12,0,19.56-3.6t7.56-10.32a5.47,5.47,0,0,0-2.16-4.56,10,10,0,0,0-6.24-1.68Zm51.6-103q0-8.16-7-8.16-6,0-10.44,5.88t-9,21q-3.84,12.48-3.84,19,0,7.92,6.72,7.92,6,0,10.56-6t9.12-20.88Q947.94,747.07,947.94,740.59Z"/><path d="M305,424.54a95.66,95.66,0,0,1,2.11-18.48q6.6-32.47,28.91-49t54.25-16.5a145.19,145.19,0,0,1,25.25,2c1.36-2.8,2.67-5.64,3.88-8.55a170,170,0,0,0-313.6-131.35,171.73,171.73,0,0,0-8.33,25.24l-.12,0c-18.14,62.1-8.86,93.61,4,111,1,1.38,1,1.28,20.7,25.09a169.24,169.24,0,0,0,20,24.31c11.6,14.19,17.67,22.39,19.69,30.57,5,20.36-3.51,39.38-9.25,52.19-4.64,10.35-11.08,20.38-23.94,40.43-10.13,15.77-14.44,21.2-13.68,29.31,1.2,12.83,14.11,21.63,21.43,25.79v0a6.36,6.36,0,0,0,.59.28,4.44,4.44,0,0,0,.61.22l0,0c8.1,2.3,23.43,5.33,33.42-2.82,6.31-5.15,7.15-12,11.3-30.31,5.26-23.23,7.89-34.85,12-45.42,5.1-13.08,12.68-32.5,30.71-43.2,6.68-4,15.8-5.48,31.5-7a170.11,170.11,0,0,0,42-3.74l7.11-.62A75.83,75.83,0,0,1,305,424.54Z"/><path d="M543.11,515.67A137.78,137.78,0,0,0,362.8,589.52,140,140,0,0,0,356,610l-.09,0c-14.7,50.33-7.19,75.87,3.22,90,.83,1.11.84,1,16.77,20.33a136.67,136.67,0,0,0,16.24,19.7c9.4,11.51,14.32,18.15,15.95,24.78,4.08,16.5-2.84,31.92-7.49,42.3-3.76,8.39-9,16.51-19.4,32.76C373,852.56,369.53,857,370.15,863.53c1,10.4,11.44,17.53,17.37,20.91v0l.47.23.5.18v0c6.56,1.86,19,4.32,27.08-2.29,5.11-4.17,5.8-9.74,9.15-24.56,4.27-18.83,6.4-28.25,9.74-36.82,4.14-10.59,10.27-26.34,24.89-35,5.42-3.21,12.81-4.44,25.53-5.69a137.53,137.53,0,0,0,33.28-2.87c0-.2.07-.4.11-.6a84.73,84.73,0,0,1,19.15-36.57A96.75,96.75,0,0,1,572,715.62a108.07,108.07,0,0,1,39.84-8.78c1.85-3.51,3.57-7.13,5.13-10.86A137.78,137.78,0,0,0,543.11,515.67ZM562,621a27.67,27.67,0,0,1-10,14.07q-7,5.11-21.53,9.27t-44.56,9.92q-18.12,3.4-27.18,6.07T446.12,666a11,11,0,0,0-3.95,7.68h61.4q12.8,0,19.4-3.42a49.85,49.85,0,0,0,12.37-9.16,32,32,0,0,1,4.16-4,6.12,6.12,0,0,1,3.73-1.17q3.82,0,7,5.22t3.2,13.33a45.48,45.48,0,0,1-1.92,12.15q-4.26,13.65-15.35,19.4t-33.47,5.76H427.46a12.93,12.93,0,0,1-11-5.76q-4.16-5.76-4.15-15.56a55.41,55.41,0,0,1,2.55-15.78A45.81,45.81,0,0,1,431.3,651q11.94-9.06,33.69-15.24,14.49-4.26,22.38-8.42t11.3-8.32a29,29,0,0,0,6.4-17.37,13,13,0,0,0-3.63-9.6q-3.63-3.62-9.81-3.62a36.87,36.87,0,0,0-6,.85,25.42,25.42,0,0,1,.22,3.84q0,14.5-8.74,21.74t-22,7.25q-9.81,0-15.57-5.11t-5.75-13.86a25.79,25.79,0,0,1,1.06-7.68q3.84-12.57,19.41-19.08t39.86-6.5q21.32,0,37,6.08t23.88,15.88q8.21,9.81,8.21,20.89A29,29,0,0,1,562,621Z"/><path d="M126,505H98a12,12,0,0,0-12,12v4a12,12,0,0,0,12,12h14C112.34,525.59,116.83,519.26,126,505Z"/><path d="M435.31,505H193.94c-1.54,6.44-3.24,14-5.3,23l-1.11,5H392.31A141.93,141.93,0,0,1,435.31,505Z"/><path d="M872,505H544.6l.1,0a141.32,141.32,0,0,1,42.89,28H872a12,12,0,0,0,12-12v-4A12,12,0,0,0,872,505Z"/></g></svg>
