<?xml version="1.0" encoding="UTF-8" standalone="no"?>
<!-- Created with Inkscape (http://www.inkscape.org/) -->

<svg
   version="1.1"
   id="svg2"
   width="1880"
   height="1762.6667"
   viewBox="0 0 1880 1762.6667"
   sodipodi:docname="Peer2pong.ai"
   xmlns:inkscape="http://www.inkscape.org/namespaces/inkscape"
   xmlns:sodipodi="http://sodipodi.sourceforge.net/DTD/sodipodi-0.dtd"
   xmlns="http://www.w3.org/2000/svg"
   xmlns:svg="http://www.w3.org/2000/svg">
  <defs
     id="defs6">
    <clipPath
       clipPathUnits="userSpaceOnUse"
       id="clipPath16">
      <path
         d="M 0,1322 H 1410 V 0 H 0 Z"
         id="path14" />
    </clipPath>
  </defs>
  <sodipodi:namedview
     id="namedview4"
     pagecolor="#ffffff"
     bordercolor="#000000"
     borderopacity="0.25"
     inkscape:showpageshadow="2"
     inkscape:pageopacity="0.0"
     inkscape:pagecheckerboard="0"
     inkscape:deskcolor="#d1d1d1" />
  <g
     id="g8"
     inkscape:groupmode="layer"
     inkscape:label="Peer2pong"
     transform="matrix(1.3333333,0,0,-1.3333333,0,1762.6667)">
    <g
       id="g10">
      <g
         id="g12"
         clip-path="url(#clipPath16)">
        <g
           id="g18"
           transform="translate(517.2832,822.9312)">
          <path
             d="m 0,0 c 6.72,0 11.838,3.12 15.36,9.36 3.517,6.24 5.197,13.2 5.04,20.88 -0.161,4.478 -1.44,6.72 -3.84,6.72 -1.763,0 -3.84,-1.402 -6.24,-4.2 C 7.92,29.959 5.557,25.759 3.24,20.16 0.918,14.558 -1.042,7.92 -2.64,0.24 -2.002,0.079 -1.122,0 0,0 M 62.88,47.16 C 72,40.68 76.56,32.4 76.56,22.32 76.56,19.279 76.237,16.478 75.6,13.92 73.2,3.36 66.518,-4.2 55.56,-8.76 44.599,-13.32 31.68,-15.6 16.8,-15.6 c -7.523,0 -14.561,0.48 -21.12,1.44 -0.161,-8.321 2.077,-14.16 6.72,-17.52 4.639,-3.36 11.119,-5.04 19.44,-5.04 3.84,0 7.518,0.439 11.04,1.32 3.517,0.878 7.998,2.198 13.44,3.96 4.477,1.598 7.518,2.4 9.12,2.4 1.759,0 2.64,-1.043 2.64,-3.12 0.157,-5.602 -1.92,-11.482 -6.24,-17.64 C 47.52,-55.961 41.119,-61.2 32.64,-65.52 24.157,-69.84 13.92,-72 1.92,-72 c -17.76,0 -32.321,4.478 -43.68,13.44 -11.363,8.959 -17.04,21.997 -17.04,39.12 0,4.8 0.637,10.399 1.92,16.8 3.997,19.68 12.757,34.519 26.28,44.52 13.518,9.998 29.958,15 49.32,15 20.318,0 35.04,-3.24 44.16,-9.72"
             style="fill:#000000;fill-opacity:1;fill-rule:nonzero;stroke:none"
             id="path20" />
        </g>
        <g
           id="g22"
           transform="translate(651.6826,822.9312)">
          <path
             d="m 0,0 c 6.72,0 11.838,3.12 15.36,9.36 3.517,6.24 5.197,13.2 5.04,20.88 -0.161,4.478 -1.44,6.72 -3.84,6.72 -1.763,0 -3.84,-1.402 -6.24,-4.2 C 7.92,29.959 5.557,25.759 3.24,20.16 0.918,14.558 -1.042,7.92 -2.64,0.24 -2.002,0.079 -1.122,0 0,0 M 62.88,47.16 C 72,40.68 76.56,32.4 76.56,22.32 76.56,19.279 76.237,16.478 75.6,13.92 73.2,3.36 66.518,-4.2 55.56,-8.76 44.599,-13.32 31.68,-15.6 16.8,-15.6 c -7.523,0 -14.561,0.48 -21.12,1.44 -0.161,-8.321 2.077,-14.16 6.72,-17.52 4.639,-3.36 11.119,-5.04 19.44,-5.04 3.84,0 7.518,0.439 11.04,1.32 3.517,0.878 7.998,2.198 13.44,3.96 4.477,1.598 7.518,2.4 9.12,2.4 1.759,0 2.64,-1.043 2.64,-3.12 0.157,-5.602 -1.92,-11.482 -6.24,-17.64 C 47.52,-55.961 41.119,-61.2 32.64,-65.52 24.157,-69.84 13.92,-72 1.92,-72 c -17.76,0 -32.321,4.478 -43.68,13.44 -11.363,8.959 -17.04,21.997 -17.04,39.12 0,4.8 0.637,10.399 1.92,16.8 3.997,19.68 12.757,34.519 26.28,44.52 13.518,9.998 29.958,15 49.32,15 20.318,0 35.04,-3.24 44.16,-9.72"
             style="fill:#000000;fill-opacity:1;fill-rule:nonzero;stroke:none"
             id="path24" />
        </g>
        <g
           id="g26"
           transform="translate(862.7617,870.7998)">
          <path
             d="m 0,0 c 5.359,-5.441 8.041,-12.161 8.041,-20.16 0,-3.041 -0.324,-5.842 -0.961,-8.4 -1.601,-6.562 -4.642,-11.602 -9.119,-15.12 -4.482,-3.521 -9.84,-5.28 -16.08,-5.28 -6.084,0 -10.682,1.44 -13.801,4.32 -3.119,2.88 -5.881,6.72 -8.279,11.52 -1.283,2.719 -2.483,4.718 -3.602,6 -1.121,1.279 -2.398,1.92 -3.84,1.92 -1.599,0 -3,-0.641 -4.199,-1.92 -1.199,-1.282 -2.279,-3.521 -3.24,-6.72 l -18.481,-60 c -0.322,-0.802 -0.479,-2.002 -0.479,-3.6 0,-2.081 0.601,-3.802 1.8,-5.16 1.2,-1.361 2.84,-2.681 4.92,-3.96 1.92,-1.282 3.199,-2.321 3.84,-3.12 0.638,-0.802 0.878,-1.841 0.72,-3.12 -0.322,-2.081 -1.48,-3.6 -3.48,-4.56 -2.002,-0.96 -5.4,-1.44 -10.199,-1.44 h -61.441 c -4.159,0 -7.159,0.679 -9,2.04 -1.837,1.358 -2.52,3.157 -2.04,5.4 0.641,1.92 2.321,3.6 5.04,5.04 2.4,1.279 4.402,2.798 6,4.56 1.598,1.759 2.959,4.56 4.08,8.4 l 21.361,69.36 c 0.318,0.799 0.479,1.92 0.479,3.36 0,1.759 -0.36,3.12 -1.08,4.08 -0.72,0.96 -1.882,2.16 -3.48,3.6 -1.601,1.279 -2.722,2.4 -3.36,3.36 -0.641,0.96 -0.72,2.239 -0.239,3.84 0.959,3.679 6,6.919 15.119,9.72 9.12,2.798 18.638,4.2 28.561,4.2 6.558,0 12,-1.481 16.32,-4.44 4.318,-2.962 7.117,-7.162 8.398,-12.6 C -44.039,2.479 -33.959,8.16 -21.48,8.16 -12.521,8.16 -5.363,5.437 0,0"
             style="fill:#000000;fill-opacity:1;fill-rule:nonzero;stroke:none"
             id="path28" />
        </g>
        <g
           id="g30"
           transform="translate(749.623,483.252)">
          <path
             d="M 0,0 C -3.762,-6 -8.201,-17.322 -13.32,-33.961 -18.442,-50.604 -21,-62.281 -21,-69 c 0,-3.521 0.559,-5.881 1.68,-7.08 1.117,-1.201 2.64,-1.801 4.56,-1.801 3.36,-0.322 6.84,2.558 10.44,8.641 3.599,6.078 8.119,17.917 13.56,35.519 4.957,15.518 7.44,26.798 7.44,33.84 0,3.36 -0.522,5.678 -1.56,6.961 C 14.078,8.358 12.6,9 10.68,9 7.32,9 3.758,6 0,0 M 59.52,17.159 C 69.84,8.358 75,-3.162 75,-17.4 c 0,-4.801 -0.641,-10.162 -1.92,-16.08 -3.041,-13.122 -8.723,-24.6 -17.04,-34.44 -8.321,-9.841 -18.521,-17.441 -30.601,-22.801 -12.082,-5.362 -25.162,-8.04 -39.239,-8.04 -22.241,0 -38.681,4.441 -49.32,13.321 -10.643,8.879 -15.96,20.676 -15.96,35.399 0,4.958 0.638,10.478 1.92,16.561 3.037,12.48 8.839,23.557 17.4,33.24 8.557,9.678 19.039,17.197 31.44,22.559 12.398,5.359 25.638,8.04 39.72,8.04 21.758,0 37.8,-4.402 48.12,-13.2"
             style="fill:#000000;fill-opacity:1;fill-rule:nonzero;stroke:none"
             id="path32" />
        </g>
        <g
           id="g34"
           transform="translate(974.1406,419.7715)">
          <path
             d="m 0,0 c -0.322,-0.642 -0.479,-1.602 -0.479,-2.88 0,-1.122 0.277,-2.003 0.839,-2.64 0.559,-0.641 1.321,-0.96 2.281,-0.96 1.92,0 3.558,0.839 4.92,2.52 1.357,1.68 2.279,2.521 2.759,2.521 0.799,0 1.44,-0.522 1.92,-1.561 0.481,-1.043 0.721,-2.28 0.721,-3.721 0.157,-4.642 -1.361,-9.16 -4.561,-13.559 -3.203,-4.403 -7.882,-8.003 -14.04,-10.8 -6.161,-2.797 -13.559,-4.2 -22.2,-4.2 -10.559,0 -18.96,2.437 -25.199,7.32 -6.24,4.878 -9.443,11.399 -9.601,19.56 0,5.918 1.441,12.558 4.321,19.92 l 13.2,34.56 c 0.799,2.077 1.199,3.758 1.199,5.04 0,2.077 -0.682,3.72 -2.039,4.92 -1.361,1.2 -3,1.8 -4.92,1.8 -3.521,0 -6.882,-1.643 -10.08,-4.92 -3.203,-3.281 -5.52,-7.32 -6.961,-12.12 L -82.8,-8.16 c -0.641,-1.763 -0.96,-3.443 -0.96,-5.04 0,-1.92 0.398,-3.48 1.2,-4.68 0.799,-1.2 1.92,-2.441 3.361,-3.72 1.117,-0.961 1.92,-1.841 2.399,-2.64 0.481,-0.803 0.56,-1.762 0.24,-2.88 -0.641,-2.081 -2.16,-3.601 -4.559,-4.56 -2.401,-0.961 -6.162,-1.44 -11.28,-1.44 h -54.72 c -4.159,0 -7.159,0.679 -9,2.04 -1.838,1.357 -2.521,3.157 -2.041,5.4 0.641,1.92 2.322,3.6 5.041,5.039 2.399,1.28 4.402,2.798 6,4.561 1.598,1.759 2.959,4.56 4.08,8.4 l 21.359,69.36 c 0.319,0.799 0.481,1.92 0.481,3.36 0,1.759 -0.361,3.12 -1.08,4.08 -0.721,0.96 -1.883,2.159 -3.481,3.6 -1.601,1.278 -2.722,2.4 -3.359,3.36 -0.642,0.96 -0.721,2.238 -0.24,3.84 0.96,3.679 6,6.919 15.119,9.72 9.121,2.798 18.638,4.2 28.56,4.2 7.999,0 14.318,-2.201 18.96,-6.6 4.639,-4.402 6.72,-10.523 6.241,-18.36 6.558,9.438 13.518,15.96 20.879,19.559 7.358,3.601 15.36,5.401 24,5.401 9.758,0 17.641,-2.963 23.641,-8.88 6,-5.921 9,-13.602 9,-23.04 0,-4.961 -0.803,-9.84 -2.4,-14.641 z"
             style="fill:#000000;fill-opacity:1;fill-rule:nonzero;stroke:none"
             id="path36" />
        </g>
        <g
           id="g38"
           transform="translate(1094.6182,486.252)">
          <path
             d="m 0,0 c 0,5.437 -2.321,8.159 -6.96,8.159 -4.002,0 -7.481,-1.961 -10.44,-5.88 -2.962,-3.922 -5.962,-10.92 -9,-21 -2.562,-8.321 -3.84,-14.639 -3.84,-18.96 0,-5.28 2.239,-7.92 6.719,-7.92 3.999,0 7.52,1.999 10.561,6 3.037,3.997 6.078,10.958 9.12,20.88 C -1.282,-10.561 0,-4.32 0,0 m -51.601,-102.961 c -4.48,0 -8.56,0.24 -12.239,0.721 -1.92,-2.401 -2.88,-5.6 -2.88,-9.601 0.157,-3.997 1.8,-6.878 4.92,-8.639 3.119,-1.759 7.957,-2.641 14.52,-2.641 7.999,0 14.52,1.201 19.56,3.6 5.039,2.4 7.56,5.843 7.56,10.32 0,1.92 -0.72,3.443 -2.16,4.56 -1.44,1.121 -3.522,1.68 -6.241,1.68 z M 63.24,63.239 c 4.878,-2.159 8.88,-5.122 12,-8.88 3.119,-3.761 4.68,-7.799 4.68,-12.12 0,-9.442 -6.401,-14.159 -19.2,-14.159 -3.683,0 -6.522,0.277 -8.52,0.84 -2.003,0.559 -4.361,1.476 -7.08,2.76 -0.48,-1.121 -0.721,-2.723 -0.721,-4.801 0,-2.561 0.44,-5.602 1.321,-9.119 0.878,-3.522 1.958,-6.803 3.24,-9.84 C 52.319,2.958 54,-2.963 54,-9.841 c 0,-3.041 -0.401,-6.72 -1.2,-11.04 -1.92,-8.32 -6.12,-15.922 -12.6,-22.8 -6.48,-6.882 -14.802,-12.281 -24.96,-16.2 -10.163,-3.922 -21.323,-5.88 -33.48,-5.88 -9.281,0 -18,0.638 -26.16,1.92 -2.4,-2.081 -3.6,-4.641 -3.6,-7.68 0,-2.081 0.96,-3.802 2.88,-5.16 1.92,-1.361 5.119,-2.04 9.599,-2.04 h 36 c 12.32,0 21.919,-2.123 28.801,-6.359 6.877,-4.242 10.32,-10.283 10.32,-18.121 0,-2.879 -0.48,-5.838 -1.44,-8.879 -1.92,-6.24 -6.281,-12.038 -13.08,-17.4 -6.803,-5.36 -16.361,-9.721 -28.681,-13.081 -12.322,-3.359 -27.281,-5.04 -44.879,-5.04 -15.683,0 -28.961,1.362 -39.84,4.08 -10.878,2.723 -18.997,6.443 -24.361,11.161 -5.358,4.721 -8.039,9.96 -8.039,15.719 0,1.284 0.323,3.203 0.959,5.76 1.441,4.643 4.681,8.442 9.721,11.401 5.04,2.959 13.32,4.919 24.84,5.879 -3.84,3.679 -5.76,8.078 -5.76,13.201 0,1.758 0.24,3.599 0.72,5.519 2.557,8.318 10.08,14.479 22.559,18.481 -12,6.558 -18,16.158 -18,28.799 0,3.518 0.481,7.201 1.441,11.04 1.92,8.318 6.157,15.877 12.719,22.68 6.559,6.799 14.959,12.199 25.201,16.2 10.237,3.997 21.438,6 33.6,6 19.038,0 33.997,-2.482 44.88,-7.44 -2.4,3.68 -4.283,7.639 -5.64,11.881 -1.362,4.237 -2.041,8.118 -2.041,11.639 0,6.08 1.958,11.281 5.88,15.601 3.919,4.319 9.878,6.479 17.881,6.479 5.118,0 10.117,-1.08 15,-3.24"
             style="fill:#000000;fill-opacity:1;fill-rule:nonzero;stroke:none"
             id="path40" />
        </g>
        <g
           id="g42"
           transform="translate(689.79,711.1704)">
          <path
             d="m 0,0 c -70.187,29.398 -150.915,-3.667 -180.313,-73.854 -2.823,-6.739 -5.064,-13.577 -6.758,-20.456 l -0.091,0.037 c -14.703,-50.323 -7.187,-75.868 3.218,-89.952 0.826,-1.118 0.84,-1.038 16.772,-20.335 4.761,-7.017 10.186,-13.618 16.234,-19.703 9.4,-11.503 14.322,-18.147 15.957,-24.773 4.073,-16.504 -2.841,-31.922 -7.494,-42.299 -3.762,-8.392 -8.976,-16.517 -19.404,-32.767 -8.205,-12.788 -11.701,-17.186 -11.086,-23.756 0.973,-10.406 11.439,-17.534 17.37,-20.907 l 0.01,0.024 c 0.153,-0.081 0.31,-0.158 0.473,-0.226 0.163,-0.069 0.328,-0.126 0.493,-0.179 l -0.01,-0.024 c 6.565,-1.861 18.986,-4.319 27.085,2.287 5.114,4.171 5.796,9.747 9.153,24.565 4.267,18.831 6.4,28.247 9.741,36.815 4.131,10.595 10.27,26.338 24.889,35.013 5.414,3.213 12.807,4.443 25.528,5.689 11.527,-0.416 22.965,0.629 34.062,3.033 19.616,1.71 19.675,1.667 20.946,1.848 15.741,2.237 36.543,12.804 59.363,48.993 7.04,9.196 13.032,19.431 17.716,30.614 C 103.252,-110.126 70.186,-29.398 0,0"
             style="fill:#7a3131;fill-opacity:1;fill-rule:nonzero;stroke:none"
             id="path44" />
        </g>
        <g
           id="g46"
           transform="translate(474.9951,1115.3218)">
          <path
             d="m 0,0 c -86.598,36.272 -186.203,-4.525 -222.475,-91.123 -3.483,-8.316 -6.249,-16.752 -8.338,-25.24 l -0.112,0.047 c -18.141,-62.091 -8.868,-93.609 3.97,-110.986 1.019,-1.38 1.037,-1.281 20.693,-25.09 5.875,-8.657 12.569,-16.803 20.03,-24.31 11.599,-14.194 17.671,-22.39 19.689,-30.566 5.025,-20.363 -3.505,-39.387 -9.246,-52.19 -4.643,-10.354 -11.076,-20.379 -23.942,-40.429 -10.124,-15.777 -14.436,-21.203 -13.678,-29.31 1.201,-12.839 14.114,-21.635 21.431,-25.796 l 0.013,0.031 c 0.19,-0.101 0.382,-0.197 0.584,-0.281 0.201,-0.084 0.404,-0.155 0.609,-0.219 l -0.013,-0.031 c 8.099,-2.296 23.426,-5.328 33.418,2.823 6.31,5.146 7.152,12.026 11.294,30.308 5.263,23.235 7.896,34.852 12.017,45.424 5.098,13.073 12.672,32.497 30.709,43.2 6.68,3.964 15.802,5.481 31.498,7.019 14.222,-0.514 28.335,0.776 42.027,3.742 24.202,2.109 24.275,2.057 25.843,2.28 19.421,2.76 45.088,15.798 73.244,60.449 8.686,11.346 16.079,23.976 21.858,37.773 C 127.395,-135.877 86.598,-36.272 0,0"
             style="fill:#7a3131;fill-opacity:1;fill-rule:nonzero;stroke:none"
             id="path48" />
        </g>
        <g
           id="g50"
           transform="translate(677.8574,650.9238)">
          <path
             d="m 0,0 c 10.446,-4.051 18.404,-9.347 23.877,-15.883 5.47,-6.539 8.208,-13.504 8.208,-20.892 0,-2.702 -0.426,-5.474 -1.279,-8.315 -1.992,-5.97 -5.33,-10.66 -10.02,-14.071 -4.691,-3.411 -11.869,-6.502 -21.533,-9.274 -9.667,-2.771 -24.517,-6.076 -44.557,-9.914 -12.082,-2.275 -21.142,-4.299 -27.182,-6.076 -6.042,-1.778 -10.233,-3.661 -12.578,-5.649 -2.345,-1.992 -3.661,-4.55 -3.944,-7.675 h 61.399 c 8.527,0 14.994,1.136 19.401,3.411 4.403,2.272 8.527,5.33 12.365,9.167 1.706,1.846 3.091,3.161 4.157,3.944 1.066,0.78 2.309,1.173 3.731,1.173 2.558,0 4.903,-1.742 7.036,-5.223 2.131,-3.484 3.197,-7.925 3.197,-13.325 0,-3.553 -0.639,-7.605 -1.919,-12.152 -2.844,-9.097 -7.961,-15.562 -15.35,-19.399 -7.391,-3.838 -18.547,-5.757 -33.47,-5.757 h -75.258 c -4.55,0 -8.207,1.919 -10.979,5.757 -2.771,3.837 -4.157,9.023 -4.157,15.562 0,4.83 0.853,10.09 2.558,15.777 2.984,9.806 8.455,17.728 16.416,23.77 7.958,6.04 19.187,11.119 33.684,15.244 9.664,2.841 17.126,5.65 22.385,8.42 5.257,2.773 9.024,5.544 11.3,8.315 2.271,2.772 4.051,6.216 5.33,10.339 0.709,2.842 1.066,5.188 1.066,7.037 0,3.976 -1.21,7.174 -3.625,9.593 -2.418,2.415 -5.686,3.624 -9.806,3.624 -1.14,0 -3.129,-0.286 -5.97,-0.852 0.14,-0.853 0.213,-2.132 0.213,-3.837 0,-9.668 -2.914,-16.916 -8.741,-21.746 -5.829,-4.834 -13.148,-7.249 -21.958,-7.249 -6.539,0 -11.726,1.705 -15.564,5.117 -3.837,3.411 -5.756,8.027 -5.756,13.857 0,2.842 0.354,5.4 1.066,7.675 2.558,8.384 9.025,14.743 19.401,19.08 10.373,4.335 23.664,6.503 39.867,6.503 C -22.779,6.076 -10.447,4.051 0,0"
             style="fill:#ffffff;fill-opacity:1;fill-rule:nonzero;stroke:none"
             id="path52" />
        </g>
      </g>
    </g>
    <g
       id="g54"
       transform="translate(257.5,516)">
      <path
         d="M 0,0 V 36.5"
         style="fill:none;stroke:#000000;stroke-width:1;stroke-linecap:butt;stroke-linejoin:miter;stroke-miterlimit:10;stroke-dasharray:none;stroke-opacity:1"
         id="path56" />
    </g>
    <g
       id="g58"
       transform="translate(257.5,722)">
      <path
         d="M 0,0 V 28.5"
         style="fill:none;stroke:#000000;stroke-width:1;stroke-linecap:butt;stroke-linejoin:miter;stroke-miterlimit:10;stroke-dasharray:none;stroke-opacity:1"
         id="path60" />
    </g>
    <g
       id="g62"
       transform="translate(257.5,339)">
      <path
         d="M 0,0 V 45"
         style="fill:none;stroke:#000000;stroke-width:1;stroke-linecap:butt;stroke-linejoin:miter;stroke-miterlimit:10;stroke-dasharray:none;stroke-opacity:1"
         id="path64" />
    </g>
  </g>
</svg>
